<svg width="1024" height="120" version="1.1" viewBox="0 0 270.93333 31.75" xmlns="http://www.w3.org/2000/svg" xmlns:xlink="http://www.w3.org/1999/xlink">
  <defs>
    <linearGradient id="linearGradient905-7">
      <stop stop-color="#e2a23c" offset="0"/>
      <stop stop-color="#e2a23c" stop-opacity="0" offset="1"/>
    </linearGradient>
    <radialGradient id="radialGradient2553" cx="44.747" cy="273.9" r="1.9043" gradientTransform="matrix(1.3442 -1.8388e-6 2.0594e-6 1.5055 -15.402 -138.44)" gradientUnits="userSpaceOnUse" xlink:href="#linearGradient905-7"/>
    <filter id="filter2563" x="-.2676" y="-.2676" width="1.5352" height="1.5352" color-interpolation-filters="sRGB">
      <feGaussianBlur stdDeviation="0.37995704"/>
    </filter>
  </defs>
  <g transform="translate(0 -265.25)">
    <g fill="#e2a23c" fill-opacity=".78431">
      <path d="m29.945 278.83a3.4745 3.4745 0 0 1 -3.4435 3.4744 3.4745 3.4745 0 0 1 -3.5049 -3.4124 3.4745 3.4745 0 0 1 3.381 -3.5352 3.4745 3.4745 0 0 1 3.5652 3.3493"/>
      <path d="m16.577 283.4a3.1404 3.1404 0 0 1 -3.1124 3.1403 3.1404 3.1404 0 0 1 -3.1679 -3.0843 3.1404 3.1404 0 0 1 3.0559 -3.1953 3.1404 3.1404 0 0 1 3.2224 3.0273"/>
      <path d="m19.602 279.1a1.0691 1.0691 0 0 1 -1.0595 1.069 1.0691 1.0691 0 0 1 -1.0784 -1.05 1.0691 1.0691 0 0 1 1.0403 -1.0878 1.0691 1.0691 0 0 1 1.097 1.0306"/>
      <path d="m18.73 273.36a2.5391 2.5391 0 0 1 -2.5164 2.539 2.5391 2.5391 0 0 1 -2.5613 -2.4937 2.5391 2.5391 0 0 1 2.4707 -2.5834 2.5391 2.5391 0 0 1 2.6054 2.4476"/>
      <path d="m18.386 286.65a1.1359 1.1359 0 0 1 -1.1258 1.1358 1.1359 1.1359 0 0 1 -1.1458 -1.1156 1.1359 1.1359 0 0 1 1.1053 -1.1558 1.1359 1.1359 0 0 1 1.1656 1.095"/>
      <path d="m16.798 289.09a0.93544 0.93544 0 0 1 -0.9271 0.93541 0.93544 0.93544 0 0 1 -0.94364 -0.91872 0.93544 0.93544 0 0 1 0.91027 -0.95179 0.93544 0.93544 0 0 1 0.95987 0.90174"/>
      <path d="m25.465 284.43a1.0357 1.0357 0 0 1 -1.0264 1.0356 1.0357 1.0357 0 0 1 -1.0447 -1.0172 1.0357 1.0357 0 0 1 1.0078 -1.0538 1.0357 1.0357 0 0 1 1.0627 0.99836"/>
      <path d="m5.9881 273.54a2.2718 2.2718 0 0 1 -2.2515 2.2717 2.2718 2.2718 0 0 1 -2.2917 -2.2312 2.2718 2.2718 0 0 1 2.2107 -2.3115 2.2718 2.2718 0 0 1 2.3311 2.19"/>
      <path d="m8.0993 286.24a1.7373 1.7373 0 0 1 -1.7218 1.7372 1.7373 1.7373 0 0 1 -1.7525 -1.7062 1.7373 1.7373 0 0 1 1.6905 -1.7676 1.7373 1.7373 0 0 1 1.7826 1.6747"/>
      <path d="m5.3813 291a1.1359 1.1359 0 0 1 -1.1258 1.1358 1.1359 1.1359 0 0 1 -1.1458 -1.1156 1.1359 1.1359 0 0 1 1.1053 -1.1558 1.1359 1.1359 0 0 1 1.1656 1.095"/>
      <path d="m11.397 266.73a1.0023 1.0023 0 0 1 -0.99332 1.0022 1.0023 1.0023 0 0 1 -1.011 -0.98434 1.0023 1.0023 0 0 1 0.97529 -1.0198 1.0023 1.0023 0 0 1 1.0284 0.96615"/>
      <path d="m35.015 268.84a1.3363 1.3363 0 0 1 -1.3244 1.3363 1.3363 1.3363 0 0 1 -1.3481 -1.3125 1.3363 1.3363 0 0 1 1.3004 -1.3597 1.3363 1.3363 0 0 1 1.3712 1.2882"/>
      <path d="m32.497 274.86a1.1359 1.1359 0 0 1 -1.1258 1.1358 1.1359 1.1359 0 0 1 -1.1458 -1.1156 1.1359 1.1359 0 0 1 1.1053 -1.1558 1.1359 1.1359 0 0 1 1.1656 1.095"/>
      <path d="m38.318 280.09a1.0691 1.0691 0 0 1 -1.0595 1.069 1.0691 1.0691 0 0 1 -1.0784 -1.05 1.0691 1.0691 0 0 1 1.0403 -1.0878 1.0691 1.0691 0 0 1 1.097 1.0306"/>
      <path d="m49.626 268.62a0.90203 0.90203 0 0 1 -0.89399 0.902 0.90203 0.90203 0 0 1 -0.90994 -0.88591 0.90203 0.90203 0 0 1 0.87776 -0.9178 0.90203 0.90203 0 0 1 0.92559 0.86954"/>
      <path d="m70.792 267.69a1.0357 1.0357 0 0 1 -1.0264 1.0356 1.0357 1.0357 0 0 1 -1.0447 -1.0172 1.0357 1.0357 0 0 1 1.0078 -1.0538 1.0357 1.0357 0 0 1 1.0627 0.99836"/>
      <path d="m73.438 271.06a1.3698 1.3698 0 0 1 -1.3575 1.3697 1.3698 1.3698 0 0 1 -1.3818 -1.3453 1.3698 1.3698 0 0 1 1.3329 -1.3937 1.3698 1.3698 0 0 1 1.4055 1.3204"/>
    </g>
    <g fill="url(#radialGradient2553)">
      <path transform="matrix(1.0977 0 0 1.0977 -4.3719 -26.761)" d="m46.451 273.9a1.7038 1.7038 0 0 1 -1.6886 1.7038 1.7038 1.7038 0 0 1 -1.7188 -1.6734 1.7038 1.7038 0 0 1 1.658 -1.7336 1.7038 1.7038 0 0 1 1.7483 1.6425" filter="url(#filter2563)"/>
      <path transform="matrix(.94444 0 0 .94444 21.109 13.77)" d="m46.451 273.9a1.7038 1.7038 0 0 1 -1.6886 1.7038 1.7038 1.7038 0 0 1 -1.7188 -1.6734 1.7038 1.7038 0 0 1 1.658 -1.7336 1.7038 1.7038 0 0 1 1.7483 1.6425" filter="url(#filter2563)"/>
      <path transform="matrix(.94444 0 0 .94444 15.288 11.124)" d="m46.451 273.9a1.7038 1.7038 0 0 1 -1.6886 1.7038 1.7038 1.7038 0 0 1 -1.7188 -1.6734 1.7038 1.7038 0 0 1 1.658 -1.7336 1.7038 1.7038 0 0 1 1.7483 1.6425" filter="url(#filter2563)"/>
    </g>
    <g fill="#e2a23c" fill-opacity=".78431">
      <path d="m86.338 266.93a1.47 1.47 0 0 1 -1.4569 1.4699 1.47 1.47 0 0 1 -1.4829 -1.4437 1.47 1.47 0 0 1 1.4304 -1.4957 1.47 1.47 0 0 1 1.5084 1.417"/>
      <path d="m115.57 267.99a1.0691 1.0691 0 0 1 -1.0595 1.069 1.0691 1.0691 0 0 1 -1.0784 -1.05 1.0691 1.0691 0 0 1 1.0403 -1.0878 1.0691 1.0691 0 0 1 1.097 1.0306"/>
      <path d="m171.07 272.22a1.0023 1.0023 0 0 1 -0.99332 1.0022 1.0023 1.0023 0 0 1 -1.011 -0.98434 1.0023 1.0023 0 0 1 0.97529 -1.0198 1.0023 1.0023 0 0 1 1.0284 0.96615"/>
      <path d="m204.02 273.81a2.205 2.205 0 0 1 -2.1853 2.2049 2.205 2.205 0 0 1 -2.2243 -2.1656 2.205 2.205 0 0 1 2.1456 -2.2435 2.205 2.205 0 0 1 2.2626 2.1255"/>
      <path d="m210.03 275.39a1.3363 1.3363 0 0 1 -1.3244 1.3363 1.3363 1.3363 0 0 1 -1.348 -1.3125 1.3363 1.3363 0 0 1 1.3004 -1.3597 1.3363 1.3363 0 0 1 1.3712 1.2882"/>
      <path d="m217.97 269.84a1.0691 1.0691 0 0 1 -1.0595 1.069 1.0691 1.0691 0 0 1 -1.0784 -1.05 1.0691 1.0691 0 0 1 1.0403 -1.0878 1.0691 1.0691 0 0 1 1.097 1.0306"/>
      <path d="m214.95 283.06a3.3409 3.3409 0 0 1 -3.3111 3.3407 3.3409 3.3409 0 0 1 -3.3701 -3.2812 3.3409 3.3409 0 0 1 3.251 -3.3993 3.3409 3.3409 0 0 1 3.4281 3.2205"/>
      <path d="m203.68 291a1.0691 1.0691 0 0 1 -1.0595 1.069 1.0691 1.0691 0 0 1 -1.0784 -1.05 1.0691 1.0691 0 0 1 1.0403 -1.0878 1.0691 1.0691 0 0 1 1.097 1.0306"/>
      <path d="m202.42 278.3a0.33409 0.33409 0 0 1 -0.33111 0.33407 0.33409 0.33409 0 0 1 -0.33701 -0.32811 0.33409 0.33409 0 0 1 0.32509 -0.33993 0.33409 0.33409 0 0 1 0.34282 0.32206"/>
      <path d="m217.64 279a1.1025 1.1025 0 0 1 -1.0927 1.1024 1.1025 1.1025 0 0 1 -1.1121 -1.0828 1.1025 1.1025 0 0 1 1.0728 -1.1218 1.1025 1.1025 0 0 1 1.1313 1.0628"/>
      <path d="m224.25 274.86a0.93544 0.93544 0 0 1 -0.92711 0.93541 0.93544 0.93544 0 0 1 -0.94363 -0.91872 0.93544 0.93544 0 0 1 0.91027 -0.9518 0.93544 0.93544 0 0 1 0.95987 0.90175"/>
      <path d="m223.45 284.42a0.96885 0.96885 0 0 1 -0.96021 0.96881 0.96885 0.96885 0 0 1 -0.97734 -0.95153 0.96885 0.96885 0 0 1 0.94278 -0.98578 0.96885 0.96885 0 0 1 0.99415 0.93394"/>
      <path d="m237.15 270.63a0.93544 0.93544 0 0 1 -0.9271 0.93541 0.93544 0.93544 0 0 1 -0.94364 -0.91872 0.93544 0.93544 0 0 1 0.91027 -0.9518 0.93544 0.93544 0 0 1 0.95988 0.90175"/>
      <path d="m247.73 268.51a0.93544 0.93544 0 0 1 -0.9271 0.93541 0.93544 0.93544 0 0 1 -0.94363 -0.91872 0.93544 0.93544 0 0 1 0.91027 -0.95179 0.93544 0.93544 0 0 1 0.95987 0.90174"/>
      <path d="m248.14 277.45a1.4032 1.4032 0 0 1 -1.3906 1.4031 1.4032 1.4032 0 0 1 -1.4154 -1.3781 1.4032 1.4032 0 0 1 1.3654 -1.4277 1.4032 1.4032 0 0 1 1.4398 1.3526"/>
      <path d="m260.84 273.22a1.4032 1.4032 0 0 1 -1.3906 1.4031 1.4032 1.4032 0 0 1 -1.4155 -1.3781 1.4032 1.4032 0 0 1 1.3654 -1.4277 1.4032 1.4032 0 0 1 1.4398 1.3526"/>
      <path d="m260.84 287.87a1.9043 1.9043 0 0 1 -1.8873 1.9042 1.9043 1.9043 0 0 1 -1.921 -1.8702 1.9043 1.9043 0 0 1 1.853 -1.9376 1.9043 1.9043 0 0 1 1.954 1.8357"/>
      <path d="m266.65 281.55a1.4032 1.4032 0 0 1 -1.3906 1.4031 1.4032 1.4032 0 0 1 -1.4155 -1.3781 1.4032 1.4032 0 0 1 1.3654 -1.4277 1.4032 1.4032 0 0 1 1.4398 1.3526"/>
      <path d="m271.94 270.97a1.4032 1.4032 0 0 1 -1.3906 1.4031 1.4032 1.4032 0 0 1 -1.4154 -1.3781 1.4032 1.4032 0 0 1 1.3654 -1.4277 1.4032 1.4032 0 0 1 1.4398 1.3526"/>
    </g>
    <g fill="url(#radialGradient2553)">
      <path transform="matrix(.94444 0 0 .94444 95.192 11.653)" d="m46.451 273.9a1.7038 1.7038 0 0 1 -1.6886 1.7038 1.7038 1.7038 0 0 1 -1.7188 -1.6734 1.7038 1.7038 0 0 1 1.658 -1.7336 1.7038 1.7038 0 0 1 1.7483 1.6425" filter="url(#filter2563)"/>
      <path transform="matrix(.84226 0 0 .84226 168.56 39.64)" d="m46.451 273.9a1.7038 1.7038 0 0 1 -1.6886 1.7038 1.7038 1.7038 0 0 1 -1.7188 -1.6734 1.7038 1.7038 0 0 1 1.658 -1.7336 1.7038 1.7038 0 0 1 1.7483 1.6425" filter="url(#filter2563)"/>
      <path transform="matrix(.84226 0 0 .84226 195.01 45.461)" d="m46.451 273.9a1.7038 1.7038 0 0 1 -1.6886 1.7038 1.7038 1.7038 0 0 1 -1.7188 -1.6734 1.7038 1.7038 0 0 1 1.658 -1.7336 1.7038 1.7038 0 0 1 1.7483 1.6425" filter="url(#filter2563)"/>
      <path transform="matrix(.91889 0 0 .91889 201.64 22.354)" d="m46.451 273.9a1.7038 1.7038 0 0 1 -1.6886 1.7038 1.7038 1.7038 0 0 1 -1.7188 -1.6734 1.7038 1.7038 0 0 1 1.658 -1.7336 1.7038 1.7038 0 0 1 1.7483 1.6425" filter="url(#filter2563)"/>
    </g>
    <path d="m18.725 269.39a2.2718 2.2718 0 0 1 -2.2515 2.2717 2.2718 2.2718 0 0 1 -2.2917 -2.2312 2.2718 2.2718 0 0 1 2.2107 -2.3115 2.2718 2.2718 0 0 1 2.3311 2.19" fill="#e2a23c" fill-opacity=".78431"/>
  </g>
</svg>
