<svg xmlns:dc="http://purl.org/dc/elements/1.1/" xmlns:cc="http://creativecommons.org/ns#" xmlns:rdf="http://www.w3.org/1999/02/22-rdf-syntax-ns#" xmlns:svg="http://www.w3.org/2000/svg" xmlns="http://www.w3.org/2000/svg" xmlns:sodipodi="http://sodipodi.sourceforge.net/DTD/sodipodi-0.dtd" xmlns:inkscape="http://www.inkscape.org/namespaces/inkscape" viewBox="0 0 45 56.25" version="1.1" x="0px" y="0px"><g transform="translate(0,-1007.3622)"><path style="color:#000000;font-style:normal;font-variant:normal;font-weight:normal;font-stretch:normal;font-size:medium;line-height:normal;font-family:sans-serif;text-indent:0;text-align:start;text-decoration:none;text-decoration-line:none;text-decoration-style:solid;text-decoration-color:#000000;letter-spacing:normal;word-spacing:normal;text-transform:none;direction:ltr;block-progression:tb;writing-mode:lr-tb;baseline-shift:baseline;text-anchor:start;white-space:normal;clip-rule:nonzero;display:inline;overflow:visible;visibility:visible;opacity:1;isolation:auto;mix-blend-mode:normal;color-interpolation:sRGB;color-interpolation-filters:linearRGB;solid-color:#000000;solid-opacity:1;fill:#000000;fill-opacity:1;fill-rule:evenodd;stroke:none;stroke-width:0.99999994px;stroke-linecap:round;stroke-linejoin:round;stroke-miterlimit:4;stroke-dasharray:none;stroke-dashoffset:0;stroke-opacity:1;color-rendering:auto;image-rendering:auto;shape-rendering:auto;text-rendering:auto;enable-background:accumulate" d="m 2.8144531,1026.7402 a 0.50004997,0.50004997 0 0 0 -0.4921875,0.5059 l 0,4.0391 a 0.50004997,0.50004997 0 1 0 1,0 l 0,-4.0391 a 0.50004997,0.50004997 0 0 0 -0.5078125,-0.5059 z"/><path style="color:#000000;font-style:normal;font-variant:normal;font-weight:normal;font-stretch:normal;font-size:medium;line-height:normal;font-family:sans-serif;text-indent:0;text-align:start;text-decoration:none;text-decoration-line:none;text-decoration-style:solid;text-decoration-color:#000000;letter-spacing:normal;word-spacing:normal;text-transform:none;direction:ltr;block-progression:tb;writing-mode:lr-tb;baseline-shift:baseline;text-anchor:start;white-space:normal;clip-rule:nonzero;display:inline;overflow:visible;visibility:visible;opacity:1;isolation:auto;mix-blend-mode:normal;color-interpolation:sRGB;color-interpolation-filters:linearRGB;solid-color:#000000;solid-opacity:1;fill:#000000;fill-opacity:1;fill-rule:evenodd;stroke:none;stroke-width:0.99999994px;stroke-linecap:round;stroke-linejoin:round;stroke-miterlimit:4;stroke-dasharray:none;stroke-dashoffset:0;stroke-opacity:1;color-rendering:auto;image-rendering:auto;shape-rendering:auto;text-rendering:auto;enable-background:accumulate" d="m 5.0078125,1028.6328 -4.50195312,0.016 a 0.50004997,0.50004997 0 1 0 0.003906,1 l 4.49999998,-0.016 a 0.50004997,0.50004997 0 1 0 -0.00195,-1 z"/><path style="color:#000000;font-style:normal;font-variant:normal;font-weight:normal;font-stretch:normal;font-size:medium;line-height:normal;font-family:sans-serif;text-indent:0;text-align:start;text-decoration:none;text-decoration-line:none;text-decoration-style:solid;text-decoration-color:#000000;letter-spacing:normal;word-spacing:normal;text-transform:none;direction:ltr;block-progression:tb;writing-mode:lr-tb;baseline-shift:baseline;text-anchor:start;white-space:normal;clip-rule:nonzero;display:inline;overflow:visible;visibility:visible;opacity:1;isolation:auto;mix-blend-mode:normal;color-interpolation:sRGB;color-interpolation-filters:linearRGB;solid-color:#000000;solid-opacity:1;fill:#000000;fill-opacity:1;fill-rule:evenodd;stroke:none;stroke-width:0.99999994px;stroke-linecap:round;stroke-linejoin:round;stroke-miterlimit:4;stroke-dasharray:none;stroke-dashoffset:0;stroke-opacity:1;color-rendering:auto;image-rendering:auto;shape-rendering:auto;text-rendering:auto;enable-background:accumulate" d="m 42.189453,1027.9883 a 0.50004997,0.50004997 0 0 0 -0.462891,0.5781 l 0.533204,3.6231 A 0.50050615,0.50050615 0 1 0 43.25,1032.043 l -0.533203,-3.6211 a 0.50004997,0.50004997 0 0 0 -0.527344,-0.4336 z"/><path style="color:#000000;font-style:normal;font-variant:normal;font-weight:normal;font-stretch:normal;font-size:medium;line-height:normal;font-family:sans-serif;text-indent:0;text-align:start;text-decoration:none;text-decoration-line:none;text-decoration-style:solid;text-decoration-color:#000000;letter-spacing:normal;word-spacing:normal;text-transform:none;direction:ltr;block-progression:tb;writing-mode:lr-tb;baseline-shift:baseline;text-anchor:start;white-space:normal;clip-rule:nonzero;display:inline;overflow:visible;visibility:visible;opacity:1;isolation:auto;mix-blend-mode:normal;color-interpolation:sRGB;color-interpolation-filters:linearRGB;solid-color:#000000;solid-opacity:1;fill:#000000;fill-opacity:1;fill-rule:evenodd;stroke:none;stroke-width:0.99999994px;stroke-linecap:round;stroke-linejoin:round;stroke-miterlimit:4;stroke-dasharray:none;stroke-dashoffset:0;stroke-opacity:1;color-rendering:auto;image-rendering:auto;shape-rendering:auto;text-rendering:auto;enable-background:accumulate" d="m 44.476562,1029.1094 a 0.50004997,0.50004997 0 0 0 -0.03516,0 l -4.279297,0.4394 a 0.50004997,0.50004997 0 1 0 0.101563,0.9942 l 4.279297,-0.4395 a 0.50010346,0.50010346 0 1 0 -0.06641,-0.998 z"/><path style="color:#000000;font-style:normal;font-variant:normal;font-weight:normal;font-stretch:normal;font-size:medium;line-height:normal;font-family:sans-serif;text-indent:0;text-align:start;text-decoration:none;text-decoration-line:none;text-decoration-style:solid;text-decoration-color:#000000;letter-spacing:normal;word-spacing:normal;text-transform:none;direction:ltr;block-progression:tb;writing-mode:lr-tb;baseline-shift:baseline;text-anchor:start;white-space:normal;clip-rule:nonzero;display:inline;overflow:visible;visibility:visible;opacity:1;isolation:auto;mix-blend-mode:normal;color-interpolation:sRGB;color-interpolation-filters:linearRGB;solid-color:#000000;solid-opacity:1;fill:#000000;fill-opacity:1;fill-rule:evenodd;stroke:none;stroke-width:0.99999994px;stroke-linecap:round;stroke-linejoin:round;stroke-miterlimit:4;stroke-dasharray:none;stroke-dashoffset:0;stroke-opacity:1;color-rendering:auto;image-rendering:auto;shape-rendering:auto;text-rendering:auto;enable-background:accumulate" d="m 4.953125,1018.4023 a 0.50004997,0.50004997 0 0 0 -0.2910156,0.9161 l 3.0175781,2.0957 A 0.50004997,0.50004997 0 1 0 8.25,1020.5938 l -3.0175781,-2.0977 a 0.50004997,0.50004997 0 0 0 -0.2792969,-0.094 z"/><path style="color:#000000;font-style:normal;font-variant:normal;font-weight:normal;font-stretch:normal;font-size:medium;line-height:normal;font-family:sans-serif;text-indent:0;text-align:start;text-decoration:none;text-decoration-line:none;text-decoration-style:solid;text-decoration-color:#000000;letter-spacing:normal;word-spacing:normal;text-transform:none;direction:ltr;block-progression:tb;writing-mode:lr-tb;baseline-shift:baseline;text-anchor:start;white-space:normal;clip-rule:nonzero;display:inline;overflow:visible;visibility:visible;opacity:1;isolation:auto;mix-blend-mode:normal;color-interpolation:sRGB;color-interpolation-filters:linearRGB;solid-color:#000000;solid-opacity:1;fill:#000000;fill-opacity:1;fill-rule:evenodd;stroke:none;stroke-width:0.99999994px;stroke-linecap:round;stroke-linejoin:round;stroke-miterlimit:4;stroke-dasharray:none;stroke-dashoffset:0;stroke-opacity:1;color-rendering:auto;image-rendering:auto;shape-rendering:auto;text-rendering:auto;enable-background:accumulate" d="m 12.75,1014.2266 a 0.50004997,0.50004997 0 0 0 -0.478516,0.6074 l 0.841797,4.1074 a 0.50045002,0.50045002 0 0 0 0.980469,-0.2012 L 13.25,1014.6328 a 0.50004997,0.50004997 0 0 0 -0.5,-0.4062 z"/><path style="color:#000000;font-style:normal;font-variant:normal;font-weight:normal;font-stretch:normal;font-size:medium;line-height:normal;font-family:sans-serif;text-indent:0;text-align:start;text-decoration:none;text-decoration-line:none;text-decoration-style:solid;text-decoration-color:#000000;letter-spacing:normal;word-spacing:normal;text-transform:none;direction:ltr;block-progression:tb;writing-mode:lr-tb;baseline-shift:baseline;text-anchor:start;white-space:normal;clip-rule:nonzero;display:inline;overflow:visible;visibility:visible;opacity:1;isolation:auto;mix-blend-mode:normal;color-interpolation:sRGB;color-interpolation-filters:linearRGB;solid-color:#000000;solid-opacity:1;fill:#000000;fill-opacity:1;fill-rule:evenodd;stroke:none;stroke-width:0.99999994px;stroke-linecap:round;stroke-linejoin:round;stroke-miterlimit:4;stroke-dasharray:none;stroke-dashoffset:0;stroke-opacity:1;color-rendering:auto;image-rendering:auto;shape-rendering:auto;text-rendering:auto;enable-background:accumulate" d="m 11.458984,1016.6074 a 0.50004997,0.50004997 0 1 0 -0.0098,1 l 3.298828,0.027 a 0.50004997,0.50004997 0 1 0 0.0078,-1 l -3.296875,-0.027 z"/><path style="color:#000000;font-style:normal;font-variant:normal;font-weight:normal;font-stretch:normal;font-size:medium;line-height:normal;font-family:sans-serif;text-indent:0;text-align:start;text-decoration:none;text-decoration-line:none;text-decoration-style:solid;text-decoration-color:#000000;letter-spacing:normal;word-spacing:normal;text-transform:none;direction:ltr;block-progression:tb;writing-mode:lr-tb;baseline-shift:baseline;text-anchor:start;white-space:normal;clip-rule:nonzero;display:inline;overflow:visible;visibility:visible;opacity:1;isolation:auto;mix-blend-mode:normal;color-interpolation:sRGB;color-interpolation-filters:linearRGB;solid-color:#000000;solid-opacity:1;fill:#000000;fill-opacity:1;fill-rule:evenodd;stroke:none;stroke-width:0.99999994px;stroke-linecap:round;stroke-linejoin:round;stroke-miterlimit:4;stroke-dasharray:none;stroke-dashoffset:0;stroke-opacity:1;color-rendering:auto;image-rendering:auto;shape-rendering:auto;text-rendering:auto;enable-background:accumulate" d="m 20.650391,1010.8867 a 0.50004997,0.50004997 0 0 0 -0.498047,0.5508 l 0.224609,2.5957 a 0.50004997,0.50004997 0 1 0 0.996094,-0.086 l -0.224609,-2.5957 a 0.50004997,0.50004997 0 0 0 -0.498047,-0.4649 z"/><path style="color:#000000;font-style:normal;font-variant:normal;font-weight:normal;font-stretch:normal;font-size:medium;line-height:normal;font-family:sans-serif;text-indent:0;text-align:start;text-decoration:none;text-decoration-line:none;text-decoration-style:solid;text-decoration-color:#000000;letter-spacing:normal;word-spacing:normal;text-transform:none;direction:ltr;block-progression:tb;writing-mode:lr-tb;baseline-shift:baseline;text-anchor:start;white-space:normal;clip-rule:nonzero;display:inline;overflow:visible;visibility:visible;opacity:1;isolation:auto;mix-blend-mode:normal;color-interpolation:sRGB;color-interpolation-filters:linearRGB;solid-color:#000000;solid-opacity:1;fill:#000000;fill-opacity:1;fill-rule:evenodd;stroke:none;stroke-width:0.99999994px;stroke-linecap:round;stroke-linejoin:round;stroke-miterlimit:4;stroke-dasharray:none;stroke-dashoffset:0;stroke-opacity:1;color-rendering:auto;image-rendering:auto;shape-rendering:auto;text-rendering:auto;enable-background:accumulate" d="m 29.869141,1015.8301 a 0.50004997,0.50004997 0 0 0 -0.496094,0.5488 l 0.273437,3.1856 a 0.50004997,0.50004997 0 1 0 0.996094,-0.086 l -0.273437,-3.1836 a 0.50004997,0.50004997 0 0 0 -0.5,-0.4648 z"/><path style="color:#000000;font-style:normal;font-variant:normal;font-weight:normal;font-stretch:normal;font-size:medium;line-height:normal;font-family:sans-serif;text-indent:0;text-align:start;text-decoration:none;text-decoration-line:none;text-decoration-style:solid;text-decoration-color:#000000;letter-spacing:normal;word-spacing:normal;text-transform:none;direction:ltr;block-progression:tb;writing-mode:lr-tb;baseline-shift:baseline;text-anchor:start;white-space:normal;clip-rule:nonzero;display:inline;overflow:visible;visibility:visible;opacity:1;isolation:auto;mix-blend-mode:normal;color-interpolation:sRGB;color-interpolation-filters:linearRGB;solid-color:#000000;solid-opacity:1;fill:#000000;fill-opacity:1;fill-rule:evenodd;stroke:none;stroke-width:0.99999994px;stroke-linecap:round;stroke-linejoin:round;stroke-miterlimit:4;stroke-dasharray:none;stroke-dashoffset:0;stroke-opacity:1;color-rendering:auto;image-rendering:auto;shape-rendering:auto;text-rendering:auto;enable-background:accumulate" d="m 31.871094,1017.4141 -3.558594,0.096 a 0.50018689,0.50018689 0 1 0 0.02734,1 l 3.55664,-0.096 a 0.50016114,0.50016114 0 1 0 -0.02539,-1 z"/><path style="color:#000000;font-style:normal;font-variant:normal;font-weight:normal;font-stretch:normal;font-size:medium;line-height:normal;font-family:sans-serif;text-indent:0;text-align:start;text-decoration:none;text-decoration-line:none;text-decoration-style:solid;text-decoration-color:#000000;letter-spacing:normal;word-spacing:normal;text-transform:none;direction:ltr;block-progression:tb;writing-mode:lr-tb;baseline-shift:baseline;text-anchor:start;white-space:normal;clip-rule:nonzero;display:inline;overflow:visible;visibility:visible;opacity:1;isolation:auto;mix-blend-mode:normal;color-interpolation:sRGB;color-interpolation-filters:linearRGB;solid-color:#000000;solid-opacity:1;fill:#000000;fill-opacity:1;fill-rule:evenodd;stroke:none;stroke-width:0.99999994px;stroke-linecap:round;stroke-linejoin:round;stroke-miterlimit:4;stroke-dasharray:none;stroke-dashoffset:0;stroke-opacity:1;color-rendering:auto;image-rendering:auto;shape-rendering:auto;text-rendering:auto;enable-background:accumulate" d="m 39.169922,1019.8281 a 0.50004997,0.50004997 0 0 0 -0.306641,0.1192 l -3.390625,2.8164 a 0.50004997,0.50004997 0 1 0 0.638672,0.7695 l 3.390625,-2.8164 a 0.50004997,0.50004997 0 0 0 -0.332031,-0.8887 z"/><path d="m 6.1218349,1023.8368 c 0.037575,-0.1844 0.076759,-0.4114 0.2394036,-0.5135 0.1733797,-0.1087 0.4337177,-0.089 0.6187455,-7e-4 0.2426243,0.1162 0.4498211,0.3662 0.493837,0.6255 0.026839,0.163 -0.04831,0.3501 -0.1642544,0.4679 -0.1449305,0.1446 -0.3773559,0.2258 -0.5839086,0.2097 -0.2254474,-0.016 -0.4739762,-0.1355 -0.5905647,-0.3237 -0.082127,-0.1328 -0.042942,-0.3135 -0.010736,-0.4657 z" style="" fill="#000000" fill-rule="evenodd" stroke="none"/><path d="m 10.11032,1019.8476 c -0.03757,-0.1388 -0.06549,-0.2963 -0.0161,-0.4313 0.06978,-0.1882 0.219006,-0.3737 0.410099,-0.448 0.14171,-0.055 0.325288,-0.038 0.456263,0.038 0.212028,0.1226 0.346222,0.3683 0.407415,0.6012 0.03758,0.1441 0.05368,0.3253 -0.03757,0.4442 -0.121313,0.157 -0.364474,0.2059 -0.56641,0.2113 -0.180895,0 -0.377893,-0.048 -0.516382,-0.1629 -0.07461,-0.061 -0.112187,-0.1603 -0.137415,-0.2522 z" style="" fill="#000000" fill-rule="evenodd" stroke="none"/><path d="m 17.006861,1016.7862 c 0.100915,0.2097 0.386481,0.3 0.620141,0.343 0.217933,0.038 0.483102,0.043 0.657985,-0.092 0.151371,-0.1146 0.221689,-0.3307 0.220079,-0.5168 -0.0023,-0.2205 -0.07408,-0.499 -0.272147,-0.6063 -0.193777,-0.1048 -0.449284,0.022 -0.657984,0.092 -0.173917,0.06 -0.369304,0.1296 -0.473976,0.2775 -0.09931,0.1403 -0.168012,0.3484 -0.09394,0.5033 z" style="" fill="#000000" fill-rule="evenodd" stroke="none"/><path d="m 23.725836,1016.9987 c 0.113797,0.163 0.376282,0.1463 0.569684,0.2049 0.09662,0.027 0.198071,0.1043 0.293618,0.073 0.170159,-0.056 0.290934,-0.2409 0.335487,-0.4103 0.05368,-0.2022 -0.0031,-0.4356 -0.108966,-0.6171 -0.04294,-0.078 -0.119702,-0.1565 -0.209881,-0.1753 -0.225984,-0.048 -0.484712,0.048 -0.666358,0.1882 -0.107892,0.083 -0.168548,0.2194 -0.205049,0.3479 -0.03758,0.1248 -0.08374,0.2813 -0.01074,0.3883 z" style="" fill="#000000" fill-rule="evenodd" stroke="none"/><path d="m 32.881681,1021.2406 c -0.04294,-0.1614 -0.101988,-0.3507 -0.02684,-0.5012 0.08696,-0.1753 0.293082,-0.2985 0.489006,-0.3383 0.231889,-0.048 0.519603,-0.011 0.694646,0.1431 0.149762,0.1328 0.213102,0.3705 0.180358,0.5653 -0.02684,0.1646 -0.157813,0.313 -0.300596,0.4055 -0.143857,0.093 -0.332803,0.1301 -0.50511,0.1134 -0.155129,-0.016 -0.312405,-0.086 -0.425129,-0.1898 -0.05582,-0.054 -0.08642,-0.1264 -0.106282,-0.1979 z" style="" fill="#000000" fill-rule="evenodd" stroke="none"/><path d="m 36.654166,1025.8344 c -0.107355,-0.1339 -0.14654,-0.3232 -0.133658,-0.4926 0.01074,-0.1624 0.05636,-0.3619 0.198072,-0.448 0.149761,-0.091 0.361789,-0.032 0.528191,0.027 0.25336,0.088 0.585465,0.2119 0.648859,0.4662 0.04294,0.1673 -0.111114,0.3394 -0.234573,0.4625 -0.106819,0.1065 -0.255507,0.1866 -0.406879,0.207 -0.0993,0.016 -0.201292,-0.027 -0.295228,-0.059 -0.10843,-0.038 -0.232963,-0.074 -0.304354,-0.1624 z" style="" fill="#000000" fill-rule="evenodd" stroke="none"/><path style="color:#000000;font-style:normal;font-variant:normal;font-weight:normal;font-stretch:normal;font-size:medium;line-height:normal;font-family:sans-serif;text-indent:0;text-align:start;text-decoration:none;text-decoration-line:none;text-decoration-style:solid;text-decoration-color:#000000;letter-spacing:normal;word-spacing:normal;text-transform:none;direction:ltr;block-progression:tb;writing-mode:lr-tb;baseline-shift:baseline;text-anchor:start;white-space:normal;clip-rule:nonzero;display:inline;overflow:visible;visibility:visible;opacity:1;isolation:auto;mix-blend-mode:normal;color-interpolation:sRGB;color-interpolation-filters:linearRGB;solid-color:#000000;solid-opacity:1;fill:#000000;fill-opacity:1;fill-rule:evenodd;stroke:none;stroke-width:0.99999994px;stroke-linecap:round;stroke-linejoin:round;stroke-miterlimit:4;stroke-dasharray:none;stroke-dashoffset:0;stroke-opacity:1;color-rendering:auto;image-rendering:auto;shape-rendering:auto;text-rendering:auto;enable-background:accumulate" d="m 36.119141,1038.2168 a 0.50004997,0.50004997 0 0 0 -0.240235,0.9141 l 3.017578,2.0976 a 0.50091558,0.50091558 0 0 0 0.572266,-0.8223 l -3.017578,-2.0976 a 0.50004997,0.50004997 0 0 0 -0.332031,-0.092 z"/><path style="color:#000000;font-style:normal;font-variant:normal;font-weight:normal;font-stretch:normal;font-size:medium;line-height:normal;font-family:sans-serif;text-indent:0;text-align:start;text-decoration:none;text-decoration-line:none;text-decoration-style:solid;text-decoration-color:#000000;letter-spacing:normal;word-spacing:normal;text-transform:none;direction:ltr;block-progression:tb;writing-mode:lr-tb;baseline-shift:baseline;text-anchor:start;white-space:normal;clip-rule:nonzero;display:inline;overflow:visible;visibility:visible;opacity:1;isolation:auto;mix-blend-mode:normal;color-interpolation:sRGB;color-interpolation-filters:linearRGB;solid-color:#000000;solid-opacity:1;fill:#000000;fill-opacity:1;fill-rule:evenodd;stroke:none;stroke-width:0.99999994px;stroke-linecap:round;stroke-linejoin:round;stroke-miterlimit:4;stroke-dasharray:none;stroke-dashoffset:0;stroke-opacity:1;color-rendering:auto;image-rendering:auto;shape-rendering:auto;text-rendering:auto;enable-background:accumulate" d="m 30.517578,1040.377 a 0.50004997,0.50004997 0 0 0 -0.480469,0.6074 l 0.84375,4.1074 a 0.50004997,0.50004997 0 1 0 0.978516,-0.2012 l -0.841797,-4.1074 a 0.50004997,0.50004997 0 0 0 -0.5,-0.4062 z"/><path style="color:#000000;font-style:normal;font-variant:normal;font-weight:normal;font-stretch:normal;font-size:medium;line-height:normal;font-family:sans-serif;text-indent:0;text-align:start;text-decoration:none;text-decoration-line:none;text-decoration-style:solid;text-decoration-color:#000000;letter-spacing:normal;word-spacing:normal;text-transform:none;direction:ltr;block-progression:tb;writing-mode:lr-tb;baseline-shift:baseline;text-anchor:start;white-space:normal;clip-rule:nonzero;display:inline;overflow:visible;visibility:visible;opacity:1;isolation:auto;mix-blend-mode:normal;color-interpolation:sRGB;color-interpolation-filters:linearRGB;solid-color:#000000;solid-opacity:1;fill:#000000;fill-opacity:1;fill-rule:evenodd;stroke:none;stroke-width:0.99999994px;stroke-linecap:round;stroke-linejoin:round;stroke-miterlimit:4;stroke-dasharray:none;stroke-dashoffset:0;stroke-opacity:1;color-rendering:auto;image-rendering:auto;shape-rendering:auto;text-rendering:auto;enable-background:accumulate" d="m 29.382812,1042.0898 a 0.50004997,0.50004997 0 1 0 -0.0078,1 l 3.296875,0.027 a 0.50004997,0.50004997 0 1 0 0.0078,-1 l -3.296876,-0.027 z"/><path style="color:#000000;font-style:normal;font-variant:normal;font-weight:normal;font-stretch:normal;font-size:medium;line-height:normal;font-family:sans-serif;text-indent:0;text-align:start;text-decoration:none;text-decoration-line:none;text-decoration-style:solid;text-decoration-color:#000000;letter-spacing:normal;word-spacing:normal;text-transform:none;direction:ltr;block-progression:tb;writing-mode:lr-tb;baseline-shift:baseline;text-anchor:start;white-space:normal;clip-rule:nonzero;display:inline;overflow:visible;visibility:visible;opacity:1;isolation:auto;mix-blend-mode:normal;color-interpolation:sRGB;color-interpolation-filters:linearRGB;solid-color:#000000;solid-opacity:1;fill:#000000;fill-opacity:1;fill-rule:evenodd;stroke:none;stroke-width:0.99999994px;stroke-linecap:round;stroke-linejoin:round;stroke-miterlimit:4;stroke-dasharray:none;stroke-dashoffset:0;stroke-opacity:1;color-rendering:auto;image-rendering:auto;shape-rendering:auto;text-rendering:auto;enable-background:accumulate" d="m 23.253906,1045.2266 a 0.50004997,0.50004997 0 0 0 -0.496094,0.5507 l 0.222657,2.5957 a 0.5008684,0.5008684 0 1 0 0.998047,-0.086 l -0.22461,-2.5957 a 0.50004997,0.50004997 0 0 0 -0.5,-0.4648 z"/><path style="color:#000000;font-style:normal;font-variant:normal;font-weight:normal;font-stretch:normal;font-size:medium;line-height:normal;font-family:sans-serif;text-indent:0;text-align:start;text-decoration:none;text-decoration-line:none;text-decoration-style:solid;text-decoration-color:#000000;letter-spacing:normal;word-spacing:normal;text-transform:none;direction:ltr;block-progression:tb;writing-mode:lr-tb;baseline-shift:baseline;text-anchor:start;white-space:normal;clip-rule:nonzero;display:inline;overflow:visible;visibility:visible;opacity:1;isolation:auto;mix-blend-mode:normal;color-interpolation:sRGB;color-interpolation-filters:linearRGB;solid-color:#000000;solid-opacity:1;fill:#000000;fill-opacity:1;fill-rule:evenodd;stroke:none;stroke-width:0.99999994px;stroke-linecap:round;stroke-linejoin:round;stroke-miterlimit:4;stroke-dasharray:none;stroke-dashoffset:0;stroke-opacity:1;color-rendering:auto;image-rendering:auto;shape-rendering:auto;text-rendering:auto;enable-background:accumulate" d="m 13.984375,1039.6953 a 0.50004997,0.50004997 0 0 0 -0.496094,0.5508 l 0.273438,3.1836 a 0.50004997,0.50004997 0 1 0 0.996093,-0.086 l -0.273437,-3.1836 a 0.50004997,0.50004997 0 0 0 -0.5,-0.4649 z"/><path style="color:#000000;font-style:normal;font-variant:normal;font-weight:normal;font-stretch:normal;font-size:medium;line-height:normal;font-family:sans-serif;text-indent:0;text-align:start;text-decoration:none;text-decoration-line:none;text-decoration-style:solid;text-decoration-color:#000000;letter-spacing:normal;word-spacing:normal;text-transform:none;direction:ltr;block-progression:tb;writing-mode:lr-tb;baseline-shift:baseline;text-anchor:start;white-space:normal;clip-rule:nonzero;display:inline;overflow:visible;visibility:visible;opacity:1;isolation:auto;mix-blend-mode:normal;color-interpolation:sRGB;color-interpolation-filters:linearRGB;solid-color:#000000;solid-opacity:1;fill:#000000;fill-opacity:1;fill-rule:evenodd;stroke:none;stroke-width:0.99999994px;stroke-linecap:round;stroke-linejoin:round;stroke-miterlimit:4;stroke-dasharray:none;stroke-dashoffset:0;stroke-opacity:1;color-rendering:auto;image-rendering:auto;shape-rendering:auto;text-rendering:auto;enable-background:accumulate" d="m 15.791016,1041.2148 -3.558594,0.096 a 0.50018689,0.50018689 0 1 0 0.02734,1 l 3.558593,-0.096 a 0.50018687,0.50018687 0 1 0 -0.02734,-1 z"/><path style="color:#000000;font-style:normal;font-variant:normal;font-weight:normal;font-stretch:normal;font-size:medium;line-height:normal;font-family:sans-serif;text-indent:0;text-align:start;text-decoration:none;text-decoration-line:none;text-decoration-style:solid;text-decoration-color:#000000;letter-spacing:normal;word-spacing:normal;text-transform:none;direction:ltr;block-progression:tb;writing-mode:lr-tb;baseline-shift:baseline;text-anchor:start;white-space:normal;clip-rule:nonzero;display:inline;overflow:visible;visibility:visible;opacity:1;isolation:auto;mix-blend-mode:normal;color-interpolation:sRGB;color-interpolation-filters:linearRGB;solid-color:#000000;solid-opacity:1;fill:#000000;fill-opacity:1;fill-rule:evenodd;stroke:none;stroke-width:0.99999994px;stroke-linecap:round;stroke-linejoin:round;stroke-miterlimit:4;stroke-dasharray:none;stroke-dashoffset:0;stroke-opacity:1;color-rendering:auto;image-rendering:auto;shape-rendering:auto;text-rendering:auto;enable-background:accumulate" d="m 8.3261719,1036.0723 a 0.50004997,0.50004997 0 0 0 -0.3066407,0.1191 l -3.3925781,2.8164 a 0.50004997,0.50004997 0 1 0 0.6386719,0.7695 l 3.3925781,-2.8164 a 0.50004997,0.50004997 0 0 0 -0.3320312,-0.8886 z"/><path style="" d="m 38.008355,1035.8875 c -0.03757,0.1844 -0.07676,0.4114 -0.239403,0.5135 -0.17338,0.1087 -0.433718,0.089 -0.618746,7e-4 -0.242624,-0.1162 -0.449821,-0.3662 -0.493837,-0.6255 -0.02684,-0.163 0.04831,-0.3501 0.164254,-0.4679 0.144931,-0.1446 0.377356,-0.2258 0.583909,-0.2097 0.225447,0.016 0.473976,0.1355 0.590565,0.3237 0.08213,0.1328 0.04294,0.3135 0.01073,0.4657 z" fill="#000000" fill-rule="evenodd" stroke="none"/><path style="" d="m 34.01987,1039.8767 c 0.03757,0.1388 0.06549,0.2963 0.0161,0.4313 -0.06978,0.1882 -0.219006,0.3737 -0.410099,0.448 -0.14171,0.055 -0.325288,0.038 -0.456263,-0.038 -0.212028,-0.1226 -0.346222,-0.3683 -0.407415,-0.6012 -0.03758,-0.1441 -0.05368,-0.3253 0.03757,-0.4442 0.121313,-0.157 0.364474,-0.2059 0.56641,-0.2113 0.180895,-0 0.377893,0.048 0.516382,0.1629 0.07461,0.061 0.112187,0.1603 0.137415,0.2522 z" fill="#000000" fill-rule="evenodd" stroke="none"/><path style="" d="m 27.123329,1042.9381 c -0.100915,-0.2097 -0.386481,-0.3 -0.620141,-0.343 -0.217933,-0.038 -0.483102,-0.043 -0.657985,0.092 -0.151371,0.1146 -0.221689,0.3307 -0.220079,0.5168 0.0023,0.2205 0.07408,0.499 0.272147,0.6063 0.193777,0.1048 0.449284,-0.022 0.657984,-0.092 0.173917,-0.06 0.369304,-0.1296 0.473976,-0.2775 0.09931,-0.1403 0.168012,-0.3484 0.09394,-0.5033 z" fill="#000000" fill-rule="evenodd" stroke="none"/><path style="" d="m 20.404354,1042.7256 c -0.113797,-0.163 -0.376282,-0.1463 -0.569684,-0.2049 -0.09662,-0.027 -0.198071,-0.1043 -0.293618,-0.073 -0.170159,0.056 -0.290934,0.2409 -0.335487,0.4103 -0.05368,0.2022 0.0031,0.4356 0.108966,0.6171 0.04294,0.078 0.119702,0.1565 0.209881,0.1753 0.225984,0.048 0.484712,-0.048 0.666358,-0.1882 0.107892,-0.083 0.168548,-0.2194 0.205049,-0.3479 0.03758,-0.1248 0.08374,-0.2813 0.01074,-0.3883 z" fill="#000000" fill-rule="evenodd" stroke="none"/><path style="" d="m 11.248509,1038.4837 c 0.04294,0.1614 0.101988,0.3507 0.02684,0.5012 -0.08696,0.1753 -0.293082,0.2985 -0.489006,0.3383 -0.231889,0.048 -0.519603,0.011 -0.694646,-0.1431 -0.1497617,-0.1328 -0.2131017,-0.3705 -0.1803581,-0.5653 0.026839,-0.1646 0.1578131,-0.313 0.3005961,-0.4055 0.143857,-0.093 0.332803,-0.1301 0.50511,-0.1134 0.155129,0.016 0.312405,0.085 0.425129,0.1898 0.05583,0.054 0.08642,0.1264 0.106282,0.1979 z" fill="#000000" fill-rule="evenodd" stroke="none"/><path style="" d="m 7.4760236,1033.8899 c 0.1073559,0.1339 0.1465408,0.3232 0.1336581,0.4926 -0.010736,0.1624 -0.056362,0.3619 -0.1980716,0.448 -0.1497614,0.091 -0.3617893,0.032 -0.5281909,-0.027 -0.2533598,-0.088 -0.5854652,-0.2119 -0.6488589,-0.4662 -0.042942,-0.1673 0.1111134,-0.3394 0.2345726,-0.4625 0.1068191,-0.1065 0.255507,-0.1866 0.4068788,-0.207 0.099304,-0.016 0.2012922,0.027 0.2952286,0.059 0.1084294,0.038 0.2329622,0.074 0.3043539,0.1624 z" fill="#000000" fill-rule="evenodd" stroke="none"/><path style="color:#000000;font-style:normal;font-variant:normal;font-weight:normal;font-stretch:normal;font-size:medium;line-height:normal;font-family:sans-serif;text-indent:0;text-align:start;text-decoration:none;text-decoration-line:none;text-decoration-style:solid;text-decoration-color:#000000;letter-spacing:normal;word-spacing:normal;text-transform:none;direction:ltr;block-progression:tb;writing-mode:lr-tb;baseline-shift:baseline;text-anchor:start;white-space:normal;clip-rule:nonzero;display:inline;overflow:visible;visibility:visible;opacity:1;isolation:auto;mix-blend-mode:normal;color-interpolation:sRGB;color-interpolation-filters:linearRGB;solid-color:#000000;solid-opacity:1;fill:#000000;fill-opacity:1;fill-rule:evenodd;stroke:none;stroke-width:1.00000024px;stroke-linecap:round;stroke-linejoin:round;stroke-miterlimit:4;stroke-dasharray:none;stroke-dashoffset:0;stroke-opacity:1;color-rendering:auto;image-rendering:auto;shape-rendering:auto;text-rendering:auto;enable-background:accumulate" d="m 19.328125,1022.2988 c -1.290446,-0.064 -2.614826,0.4251 -3.587891,1.2481 -0.795916,0.6733 -1.336598,1.6673 -1.480468,2.6972 -0.166131,1.1912 0.254868,2.3564 0.742187,3.3262 0.778133,1.549 2.136267,2.5954 3.158203,3.7266 1.246957,1.3803 3.814453,3.9843 3.814453,3.9843 a 0.50005012,0.50005012 0 0 0 0.69336,0.018 c 0,0 2.838416,-2.6098 4.173828,-4.0898 1.059124,-1.1738 2.374571,-2.328 3.109375,-3.9258 0.514597,-1.1185 1.07511,-2.507 0.708984,-3.8848 -0.303613,-1.1421 -1.186323,-2.1017 -2.222656,-2.5996 -1.109945,-0.5335 -2.422455,-0.4817 -3.535156,-0.1386 a 0.50005012,0.50005012 0 0 0 -0.01563,0.01 c -0.48327,0.1672 -1.018184,0.5142 -1.546875,0.9278 -0.332496,0.26 -0.576129,0.5563 -0.847656,0.8437 -0.03775,-0.057 -0.03179,-0.052 -0.07422,-0.1133 -0.239837,-0.3468 -0.524204,-0.7423 -0.867188,-1.0176 -0.588988,-0.4727 -1.333879,-0.9603 -2.220703,-1.0078 a 0.50005012,0.50005012 0 0 0 -0.002,0 z m -0.05078,1 c 0.532314,0.029 1.127453,0.3705 1.646484,0.7871 0.156221,0.1254 0.453543,0.491 0.671875,0.8067 0.218332,0.3157 0.376953,0.584 0.376953,0.584 a 0.50005012,0.50005012 0 0 0 0.839844,0.031 c 0.216068,-0.3099 0.668807,-0.7544 1.142578,-1.125 0.470977,-0.3684 0.984531,-0.6742 1.25,-0.7676 0.919235,-0.2817 2.004631,-0.2978 2.798828,0.084 0.767889,0.3689 1.478832,1.1648 1.689453,1.957 0.252245,0.9493 -0.160373,2.1397 -0.652343,3.209 -0.617988,1.3438 -1.831299,2.4436 -2.941407,3.6739 -1.146317,1.2704 -3.344192,3.2944 -3.759765,3.6797 -0.39787,-0.4049 -2.339655,-2.3766 -3.4375,-3.5918 -1.1021,-1.2199 -2.363803,-2.2239 -3.007813,-3.5059 -0.443457,-0.8826 -0.764721,-1.8765 -0.644531,-2.7383 0.106655,-0.766 0.547892,-1.5741 1.136719,-2.0723 0.773025,-0.6538 1.896461,-1.0603 2.890625,-1.0117 z"/></g><text x="0" y="60" fill="#000000" font-size="5px" font-weight="bold" font-family="'Helvetica Neue', Helvetica, Arial-Unicode, Arial, Sans-serif">Created by anbileru adaleru</text><text x="0" y="65" fill="#000000" font-size="5px" font-weight="bold" font-family="'Helvetica Neue', Helvetica, Arial-Unicode, Arial, Sans-serif">from the Noun Project</text></svg>